<svg xmlns="http://www.w3.org/2000/svg" xmlns:xlink="http://www.w3.org/1999/xlink" id="Livello_1" x="0px" y="0px" viewBox="0 0 126.84 86.58" style="enable-background:new 0 0 126.84 86.58;" xml:space="preserve"><style type="text/css">	.st0{fill:none;stroke:#2B2A29;stroke-width:1.94;stroke-miterlimit:22.926;}	.st1{fill:#2B2A29;}	.st2{fill-rule:evenodd;clip-rule:evenodd;fill:#FFFFFF;}	.st3{fill:#E52421;}</style><g id="Raggruppa_9" transform="translate(-971.066 -609.001)">	<path id="Tracciato_1065" class="st0" d="M980.83,661.66h106.84"></path>	<path id="Tracciato_1066" class="st1" d="M980.83,652.98h106.85v1.34H980.83V652.98z"></path>	<rect id="Rettangolo_23" x="980.83" y="647.64" class="st1" width="106.85" height="1.34"></rect>	<rect id="Rettangolo_24" x="980.83" y="642.29" class="st1" width="106.85" height="1.34"></rect>	<path id="Tracciato_1067" class="st2" d="M1028.24,656.52h9.35v12.54l-4.68-3.93l-4.67,3.93L1028.24,656.52z"></path>	<path id="Tracciato_1068" class="st3" d="M1036.59,657.52h-7.35v9.4l3.03-2.55c0.37-0.31,0.92-0.31,1.29,0l3.03,2.55  L1036.59,657.52z M1028.24,655.51h9.35c0.55,0,1,0.45,1,1v12.55c0,0.55-0.45,1-1,1c-0.27,0-0.53-0.11-0.72-0.3l-3.96-3.33  l-4.03,3.39c-0.42,0.35-1.05,0.3-1.4-0.12c-0.15-0.18-0.23-0.41-0.23-0.64h0v-12.55C1027.24,655.96,1027.69,655.51,1028.24,655.51  C1028.24,655.51,1028.24,655.51,1028.24,655.51L1028.24,655.51z"></path>	<path id="Tracciato_1069" class="st2" d="M1032.92,638.53c5.4,0,9.78,4.38,9.78,9.78c0,5.4-4.38,9.78-9.78,9.78  c-5.4,0-9.78-4.38-9.78-9.78C1023.14,642.91,1027.52,638.53,1032.92,638.53"></path>	<path id="Tracciato_1070" class="st3" d="M1038.98,642.24c-3.35-3.35-8.78-3.35-12.13,0c-3.35,3.35-3.35,8.78,0,12.13  c3.35,3.35,8.78,3.35,12.13,0c1.61-1.61,2.51-3.79,2.51-6.06C1041.5,646.03,1040.59,643.85,1038.98,642.24 M1032.92,637.33  c6.07,0,10.98,4.92,10.99,10.98c0,6.07-4.92,10.98-10.98,10.99c-6.07,0-10.98-4.92-10.99-10.98c0-2.91,1.16-5.71,3.22-7.77  C1027.21,638.48,1030,637.32,1032.92,637.33z"></path>	<path id="Tracciato_1071" class="st3" d="M1028.28,648.86c-0.3-0.46-0.18-1.08,0.28-1.39s1.08-0.18,1.39,0.28l1.66,2.51l4.73-6.86  c0.31-0.45,0.94-0.57,1.39-0.25c0.45,0.31,0.57,0.94,0.25,1.39l0,0l-5.54,8.04c-0.29,0.47-0.91,0.61-1.38,0.32  c-0.12-0.08-0.23-0.18-0.31-0.3L1028.28,648.86z"></path></g></svg>