<svg xmlns="http://www.w3.org/2000/svg" xmlns:xlink="http://www.w3.org/1999/xlink" id="Livello_1" x="0px" y="0px" viewBox="0 0 126.84 86.58" style="enable-background:new 0 0 126.84 86.58;" xml:space="preserve"><style type="text/css">	.st0{fill:none;stroke:#2B2A29;stroke-width:0.972;stroke-miterlimit:22.926;}	.st1{fill:none;stroke:#2B2A29;stroke-width:0.819;stroke-miterlimit:22.926;}	.st2{fill:none;stroke:#2B2A29;stroke-width:0.663;stroke-miterlimit:22.926;}	.st3{fill:none;stroke:#2B2A29;stroke-width:0.504;stroke-miterlimit:22.926;}	.st4{fill:none;stroke:#2B2A29;stroke-width:0.342;stroke-miterlimit:22.926;}	.st5{fill-rule:evenodd;clip-rule:evenodd;fill:#E52421;}	.st6{fill:#E52421;}</style><g id="Raggruppa_4" transform="translate(-971.072 -454.021)">	<path id="Tracciato_17" class="st0" d="M1033.57,489.04h20.55l13.4,10.66h19.9 M980.8,499.7h19.81l13.4-10.66h12.9"></path>	<path id="Tracciato_18" class="st1" d="M1051.45,494.75h2.65l13.33,7.93h19.99 M980.8,502.68h19.99l13.87-7.93h30.12"></path>	<path id="Tracciato_19" class="st2" d="M1022.11,500.18h31.8l13.38,5.24h20.13 M980.8,505.42h19.99l13.33-5.24h1.33"></path>	<path id="Tracciato_20" class="st3" d="M980.8,507.97h19.99l13.33-2.6h39.98l13.33,2.6h19.99"></path>	<path id="Tracciato_21" class="st4" d="M980.79,510.37h106.62"></path>	<path id="Tracciato_22" class="st5" d="M980.77,490.49l5.42-2.23l5.42-2.23v8.93l-5.42-2.23L980.77,490.49z"></path>	<path id="Tracciato_23" class="st5" d="M1087.41,490.49l-5.42-2.23l-5.42-2.23v8.93l5.42-2.23L1087.41,490.49z"></path>	<path id="Tracciato_24" class="st6" d="M1020.66,498.29c-1.05-1.03-2.74-1.02-3.77,0.03c-1.02,1.04-1.02,2.7,0,3.74l0,0  c1.03,1.06,2.71,1.08,3.77,0.05c1.06-1.03,1.08-2.71,0.05-3.77C1020.69,498.33,1020.67,498.32,1020.66,498.29L1020.66,498.29z   M1018.77,496.18c1.06,0,2.08,0.42,2.83,1.17l0,0c1.56,1.56,1.56,4.09,0,5.65l0,0c-1.56,1.56-4.09,1.56-5.65,0l0,0  c-1.56-1.57-1.55-4.1,0.01-5.66C1016.71,496.6,1017.72,496.18,1018.77,496.18L1018.77,496.18z"></path>	<path id="Tracciato_25" class="st6" d="M1049.99,492.86c-1.04-1.04-2.73-1.04-3.77,0c-1.04,1.04-1.04,2.73,0,3.77l0,0  c1.04,1.04,2.73,1.04,3.77,0C1051.03,495.59,1051.03,493.91,1049.99,492.86L1049.99,492.86L1049.99,492.86z M1048.11,490.75  c1.06,0,2.08,0.42,2.83,1.17l0,0c1.56,1.56,1.56,4.09,0,5.65l0,0c-1.56,1.56-4.09,1.56-5.65,0l0,0c-1.56-1.57-1.55-4.1,0.01-5.66  C1046.04,491.17,1047.05,490.75,1048.11,490.75L1048.11,490.75z"></path>	<path id="Tracciato_26" class="st6" d="M1032.12,487.16c-1.04-1.04-2.73-1.04-3.77,0c-1.04,1.04-1.04,2.73,0,3.77l0,0  c1.03,1.05,2.72,1.08,3.77,0.05c1.05-1.03,1.08-2.72,0.05-3.77C1032.15,487.19,1032.14,487.17,1032.12,487.16L1032.12,487.16z   M1030.23,485.05c1.06,0,2.08,0.42,2.83,1.17l0,0c1.56,1.56,1.56,4.09,0,5.65l0,0c-1.56,1.56-4.09,1.56-5.65,0l0,0  c-1.56-1.57-1.55-4.1,0.01-5.66C1028.17,485.47,1029.18,485.05,1030.23,485.05L1030.23,485.05z"></path></g></svg>