<svg xmlns="http://www.w3.org/2000/svg" xmlns:xlink="http://www.w3.org/1999/xlink" id="Livello_1" x="0px" y="0px" viewBox="0 0 126.84 86.58" style="enable-background:new 0 0 126.84 86.58;" xml:space="preserve"><style type="text/css">	.st0{fill:none;stroke:#010202;stroke-width:0.97;stroke-miterlimit:22.926;}	.st1{fill:none;stroke:#292929;stroke-width:0.819;stroke-miterlimit:22.926;}	.st2{fill:none;stroke:#2B2928;stroke-width:0.663;stroke-miterlimit:22.926;}	.st3{fill:none;stroke:#2A2A28;stroke-width:0.504;stroke-miterlimit:22.926;}	.st4{fill:#E52421;}	.st5{fill-rule:evenodd;clip-rule:evenodd;fill:#E52421;}</style><g id="Raggruppa_8" transform="translate(-971.066 -533.05)">	<path id="Tracciato_1058" class="st0" d="M980.87,574.54h19.77l13.38-10.64h40.04l13.38,10.64h19.86"></path>	<path id="Tracciato_1059" class="st1" d="M980.89,577.51h19.95l13.85-7.92h39.37l13.3,7.92h19.96"></path>	<path id="Tracciato_1060" class="st2" d="M980.89,580.24h19.95l13.3-5.23h39.72l13.36,5.23h20.1"></path>	<path id="Tracciato_1061" class="st3" d="M980.89,582.79h19.95l13.3-2.6h39.91l13.3,2.6h19.96"></path>	<path id="Tracciato_1062" class="st4" d="M1051.87,562.06h-35.56c-0.24,0-0.44,0.2-0.44,0.44v18.74c0,0.12,0.05,0.23,0.13,0.31  c0.08,0.08,0.19,0.13,0.31,0.13h35.56c0.12,0,0.23-0.05,0.31-0.13c0.08-0.08,0.13-0.2,0.13-0.31v-18.74  C1052.31,562.26,1052.12,562.07,1051.87,562.06 M1016.31,560.06h35.56c1.35,0,2.44,1.09,2.44,2.44v18.74  c0,1.35-1.09,2.44-2.44,2.44h-35.56c-1.35,0-2.44-1.09-2.44-2.44v-18.74C1013.88,561.16,1014.97,560.07,1016.31,560.06  L1016.31,560.06z"></path>	<path id="Tracciato_1063" class="st5" d="M1015.44,590.98h37.05c0.72,0,1.3,0.58,1.3,1.3c0,0,0,0,0,0l0,0c0,0.72-0.58,1.3-1.3,1.3  l0,0h-37.05c-0.72,0-1.3-0.58-1.3-1.3l0,0C1014.14,591.56,1014.72,590.98,1015.44,590.98"></path>	<path id="Tracciato_1064" class="st5" d="M1014.93,586.71h38.32c0.37,0,0.66,0.3,0.67,0.66l0,0c0,0.37-0.3,0.66-0.67,0.66h-38.32  c-0.37,0-0.66-0.3-0.66-0.66l0,0C1014.27,587.01,1014.56,586.71,1014.93,586.71"></path>	<rect id="Rettangolo_14" x="1031.14" y="582.69" class="st4" width="5.9" height="5.35"></rect>	<rect id="Rettangolo_15" x="1016.14" y="590.26" class="st4" width="2.66" height="1.34"></rect>	<rect id="Rettangolo_16" x="1021.46" y="590.26" class="st4" width="7.98" height="1.34"></rect>	<rect id="Rettangolo_17" x="1026.78" y="590.26" class="st4" width="2.66" height="1.34"></rect>	<rect id="Rettangolo_18" x="1032.1" y="590.26" class="st4" width="2.66" height="1.34"></rect>	<rect id="Rettangolo_19" x="1037.42" y="590.26" class="st4" width="2.66" height="1.34"></rect>	<rect id="Rettangolo_20" x="1042.74" y="590.26" class="st4" width="2.66" height="1.34"></rect>	<rect id="Rettangolo_21" x="1048.07" y="590.26" class="st4" width="2.66" height="1.34"></rect></g></svg>